<?xml version="1.0" standalone="no"?>
<!DOCTYPE svg PUBLIC "-//W3C//DTD SVG 20010904//EN"
 "http://www.w3.org/TR/2001/REC-SVG-20010904/DTD/svg10.dtd">
<svg version="1.0" xmlns="http://www.w3.org/2000/svg"
 width="500.000000pt" height="500.000000pt" viewBox="0 0 500.000000 500.000000"
 preserveAspectRatio="xMidYMid meet">
<metadata>
Created by potrace 1.14, written by Peter Selinger 2001-2017
</metadata>
<g transform="translate(0.000000,500.000000) scale(0.100000,-0.100000)"
fill="#000000" stroke="none">
<path d="M0 2500 l0 -2500 2500 0 2500 0 0 2500 0 2500 -2500 0 -2500 0 0
-2500z m2345 655 c231 -58 429 -254 491 -485 26 -98 24 -255 -5 -350 -60 -199
-185 -342 -375 -431 -319 -149 -714 -6 -872 316 -119 244 -89 512 80 721 83
103 234 199 360 230 73 18 250 17 321 -1z m1227 -42 c10 -9 18 -30 18 -47 0
-17 -93 -264 -207 -550 -223 -556 -220 -551 -281 -530 -14 5 -33 21 -41 35
-13 24 -3 53 198 557 122 305 220 536 229 542 26 15 63 12 84 -7z m-2287 -148
c26 -25 32 -63 15 -95 -6 -11 -125 -87 -265 -171 -140 -83 -255 -155 -255
-159 0 -4 115 -76 255 -160 141 -84 260 -160 265 -170 29 -54 -12 -124 -71
-124 -48 0 -674 374 -695 416 -17 33 -10 69 19 96 12 11 161 104 332 206 336
201 353 209 400 161z m2838 -166 c174 -104 326 -200 337 -211 23 -25 26 -74 7
-100 -18 -23 -645 -398 -677 -404 -38 -8 -90 37 -90 78 0 16 5 38 10 48 6 11
125 87 265 171 140 83 255 154 255 158 0 3 -107 69 -237 145 -274 162 -293
176 -293 218 0 54 31 86 85 87 11 1 163 -85 338 -190z"/>
</g>
</svg>
