<?xml version="1.0" encoding="UTF-8" standalone="no"?>
<!-- Created with Inkscape (http://www.inkscape.org/) -->

<svg
   width="6in"
   height="6in"
   viewBox="0 0 152.4 152.4"
   version="1.1"
   id="svg5"
   inkscape:version="1.1 (c68e22c387, 2021-05-23)"
   sodipodi:docname="tdd.svg"
   inkscape:export-filename="C:\Users\Derek\Desktop\tdd.png"
   inkscape:export-xdpi="83.333336"
   inkscape:export-ydpi="83.333336"
   xmlns:inkscape="http://www.inkscape.org/namespaces/inkscape"
   xmlns:sodipodi="http://sodipodi.sourceforge.net/DTD/sodipodi-0.dtd"
   xmlns="http://www.w3.org/2000/svg"
   xmlns:svg="http://www.w3.org/2000/svg">
  <sodipodi:namedview
     id="namedview7"
     pagecolor="#000000"
     bordercolor="#666666"
     borderopacity="1.0"
     inkscape:pageshadow="2"
     inkscape:pageopacity="0"
     inkscape:pagecheckerboard="0"
     inkscape:document-units="in"
     showgrid="false"
     inkscape:zoom="0.74118967"
     inkscape:cx="285.35206"
     inkscape:cy="343.3669"
     inkscape:window-width="1904"
     inkscape:window-height="1017"
     inkscape:window-x="0"
     inkscape:window-y="0"
     inkscape:window-maximized="0"
     inkscape:current-layer="layer1"
     units="in" />
  <defs
     id="defs2" />
  <g
     inkscape:label="Layer 1"
     inkscape:groupmode="layer"
     id="layer1">
    <text
       xml:space="preserve"
       style="font-style:normal;font-variant:normal;font-weight:normal;font-stretch:normal;font-size:26.9588px;line-height:1.25;font-family:Gugi;-inkscape-font-specification:'Gugi, Normal';font-variant-ligatures:normal;font-variant-caps:normal;font-variant-numeric:normal;font-variant-east-asian:normal;fill:#000000;fill-opacity:1;stroke:none;stroke-width:0.647194"
       x="70.798073"
       y="77.206276"
       id="text1112"
       transform="scale(0.80769488,1.2380913)"><tspan
         sodipodi:role="line"
         style="font-style:normal;font-variant:normal;font-weight:normal;font-stretch:normal;font-size:26.9588px;font-family:Gugi;-inkscape-font-specification:'Gugi, Normal';font-variant-ligatures:normal;font-variant-caps:normal;font-variant-numeric:normal;font-variant-east-asian:normal;stroke-width:0.647194"
         x="70.798073"
         y="77.206276"
         id="tspan1114" /></text>
    <text
       xml:space="preserve"
       style="font-style:normal;font-variant:normal;font-weight:normal;font-stretch:normal;font-size:26.9589px;line-height:1.25;font-family:Gugi;-inkscape-font-specification:'Gugi, Normal';font-variant-ligatures:normal;font-variant-caps:normal;font-variant-numeric:normal;font-variant-east-asian:normal;fill:#000000;fill-opacity:1;stroke:none;stroke-width:0.300321"
       x="63.875988"
       y="55.714687"
       id="text12873"
       transform="scale(0.87453507,1.1434647)"><tspan
         sodipodi:role="line"
         id="tspan12871"
         style="font-style:normal;font-variant:normal;font-weight:normal;font-stretch:normal;font-size:26.9589px;font-family:Gugi;-inkscape-font-specification:'Gugi, Normal';font-variant-ligatures:normal;font-variant-caps:normal;font-variant-numeric:normal;font-variant-east-asian:normal;stroke-width:0.300321"
         x="63.875988"
         y="55.714687" /></text>
    <text
       xml:space="preserve"
       style="font-style:normal;font-variant:normal;font-weight:normal;font-stretch:normal;font-size:10.5833px;line-height:1.25;font-family:Gugi;-inkscape-font-specification:'Gugi, Normal';font-variant-ligatures:normal;font-variant-caps:normal;font-variant-numeric:normal;font-variant-east-asian:normal;fill:#000000;fill-opacity:1;stroke:none;stroke-width:0.264583"
       x="53.188702"
       y="37.125"
       id="text4922"><tspan
         sodipodi:role="line"
         id="tspan6422"
         x="53.188702"
         y="37.125" /></text>
    <g
       id="g26489"
       transform="matrix(1.4101527,0,0,1.4101527,-35.817556,-36.286651)">
      <g
         id="g32387"
         transform="translate(9.6100466,-10.94494)">
        <g
           id="g32494"
           transform="translate(-5.2307305)">
          <g
             aria-label="THE  DEVS"
             id="text1565"
             style="font-size:45.5214px;line-height:1.25;font-family:Tourney;-inkscape-font-specification:'Tourney, @wght=200';font-variation-settings:'wght' 200;fill:#ffffff;stroke-width:1.13805">
            <g
               aria-label="DEVS"
               id="text5717"
               style="font-size:47.4873px;letter-spacing:-7.9375px;word-spacing:0px;stroke-width:1.35107">
              <path
                 d="M 42.223126,128.28288 V 95.041772 h 12.797827 l 4.891192,4.891192 v 23.458726 l -4.891192,4.89119 z m 6.719453,-6.71945 h 2.825494 l 1.448363,-1.44836 v -16.90548 l -1.448363,-1.44836 h -2.825494 z m -5.674733,5.67473 h 11.254491 l 4.345088,-4.32134 V 100.40784 L 54.522337,96.086493 H 43.267846 Z m 4.630012,-4.63001 V 100.7165 h 4.321345 l 2.01821,2.01821 v 17.85523 l -2.01821,2.01821 z"
                 id="path32515" />
              <path
                 d="M 64.653698,128.28288 V 95.041772 h 14.317421 v 6.719458 h -7.597968 v 6.38704 h 5.959656 v 6.71945 h -5.959656 v 6.69571 h 7.597968 v 6.71945 z m 1.044721,-1.06846 H 77.99763 v -4.63001 H 70.352174 V 113.823 h 6.007144 v -4.63001 H 70.352174 V 100.7165 H 77.99763 V 96.062749 H 65.698419 Z"
                 id="path32517" />
              <path
                 d="m 91.049502,128.28288 -7.02812,-7.02812 V 95.041772 h 6.719453 v 22.936368 l 2.27939,2.27939 v 0 l 2.279391,-2.27939 V 95.041772 h 6.719454 v 26.212988 l -7.028122,7.02812 z m 0.474873,-1.04472 h 2.9917 l 6.458275,-6.45827 V 96.062749 h -4.630014 v 22.414011 l -3.300367,3.25288 h -0.04749 l -3.300368,-3.25288 V 96.062749 h -4.630012 v 24.717141 z"
                 id="path32519" />
              <path
                 d="m 112.50658,128.28288 -4.89119,-4.89119 v -5.9834 h 6.71945 v 2.70678 l 1.44836,1.44836 h 2.13693 l 1.44837,-1.44836 v -3.65653 l -1.44837,-1.44836 h -5.27109 l -4.89119,-4.89119 V 99.932964 l 4.89119,-4.891192 h 8.09659 l 4.89119,4.891192 v 5.983396 h -6.71945 v -2.70677 l -1.44837,-1.44836 h -1.54333 l -1.47211,1.44836 v 3.63278 l 1.47211,1.44836 h 5.27109 l 4.89119,4.89119 v 10.20977 l -4.89119,4.89119 z m 0.45113,-1.04472 h 7.74043 l 4.32134,-4.32134 v -9.33126 l -4.25011,-4.2976 h -5.31858 l -2.01821,-1.97072 v -4.58253 l 1.99447,-2.01821 h 2.54057 l 1.99447,1.97073 v 2.2319 h 4.63001 v -4.53504 l -4.2976,-4.297597 h -7.17058 l -4.32135,4.321347 v 9.21253 l 4.34509,4.36884 h 5.29483 l 1.94698,1.82826 v 4.77247 l -2.01821,2.01821 h -3.06293 l -1.99446,-1.97072 v -2.23191 h -4.63002 v 4.55878 z"
                 id="path32521" />
            </g>
            <g
               aria-label="THE"
               id="text12033"
               style="font-size:47.4874px;letter-spacing:-7.9375px;stroke-width:0.301109">
              <path
                 d="M 46.971866,86.386436 V 59.864724 h -4.74874 v -6.719468 h 16.193203 v 6.719468 h -4.74874 v 26.521712 z m 1.044723,-1.020979 h 4.606277 V 58.820001 H 57.39535 V 54.166236 H 43.244105 v 4.653765 h 4.772484 z"
                 id="path32524" />
              <path
                 d="m 62.208204,86.386436 v -33.24118 h 6.719468 v 13.106523 h 3.798992 V 53.145256 h 6.695723 v 33.24118 h -6.695723 v -13.41519 h -3.798992 v 13.41519 z m 1.044723,-1.020979 h 4.630022 V 71.926523 h 5.888437 v 13.438934 h 4.606278 V 54.166236 H 73.771386 V 67.272758 H 67.882949 V 54.166236 h -4.630022 z"
                 id="path32526" />
              <path
                 d="m 84.781318,86.386436 v -33.24118 h 14.317451 v 6.719468 h -7.597984 v 6.387055 h 5.959669 v 6.719467 h -5.959669 v 6.695723 h 7.597984 v 6.719467 z m 1.044723,-1.068466 h 12.299237 v -4.630022 h -7.645472 v -8.761425 h 6.007156 v -4.630021 h -6.007156 v -8.476501 h 7.645472 V 54.166236 H 85.826041 Z"
                 id="path32528" />
            </g>
          </g>
          <path
             id="path26323"
             style="fill:#ffffff;stroke-width:0.1436"
             d="m 37.975845,121.30814 a 6.9747414,6.9747414 0 0 1 -6.974741,6.97474 6.9747414,6.9747414 0 0 1 -6.974742,-6.97474 6.9747414,6.9747414 0 0 1 6.974742,-6.97474 6.9747414,6.9747414 0 0 1 6.974741,6.97474 z" />
        </g>
      </g>
    </g>
  </g>
</svg>
