<svg xmlns="http://www.w3.org/2000/svg" version="1.1" xmlns:xlink="http://www.w3.org/1999/xlink" xmlns:svgjs="http://svgjs.com/svgjs" width="1440" height="560" preserveAspectRatio="none" viewBox="0 0 1440 560">
    <g mask="url(&quot;#SvgjsMask1528&quot;)" fill="none">
        <rect width="1440" height="560" x="0" y="0" fill="url(#SvgjsLinearGradient1529)"></rect>
        <g mask="url(&quot;#SvgjsMask1531&quot;)">
            <path d="M712.5 387.5L687.5 362.5L687.5 337.5M712.5 462.5L687.5 437.5M712.5 412.5L687.5 387.5M712.5 587.5L712.5 562.5L712.5 537.5L712.5 512.5L712.5 487.5L712.5 462.5L712.5 437.5L712.5 412.5L712.5 387.5L712.5 362.5L712.5 337.5" stroke="url(#SvgjsLinearGradient1530)" stroke-width="4.17"></path>
            <path d="M706.25 337.5 a6.25 6.25 0 1 0 12.5 0 a6.25 6.25 0 1 0 -12.5 0zM681.25 337.5 a6.25 6.25 0 1 0 12.5 0 a6.25 6.25 0 1 0 -12.5 0zM681.25 437.5 a6.25 6.25 0 1 0 12.5 0 a6.25 6.25 0 1 0 -12.5 0zM681.25 387.5 a6.25 6.25 0 1 0 12.5 0 a6.25 6.25 0 1 0 -12.5 0z" fill="url(#SvgjsLinearGradient1530)"></path>
            <path d="M762.5 412.5L737.5 387.5M762.5 437.5L737.5 412.5M737.5 587.5L737.5 562.5L737.5 537.5L737.5 512.5L737.5 487.5L737.5 462.5L762.5 437.5L762.5 412.5L762.5 387.5L737.5 362.5" stroke="url(#SvgjsLinearGradient1530)" stroke-width="4.17"></path>
            <path d="M731.25 362.5 a6.25 6.25 0 1 0 12.5 0 a6.25 6.25 0 1 0 -12.5 0zM731.25 387.5 a6.25 6.25 0 1 0 12.5 0 a6.25 6.25 0 1 0 -12.5 0zM731.25 412.5 a6.25 6.25 0 1 0 12.5 0 a6.25 6.25 0 1 0 -12.5 0z" fill="url(#SvgjsLinearGradient1530)"></path>
            <path d="M687.5 512.5L662.5 487.5L662.5 462.5M687.5 587.5L687.5 562.5L687.5 537.5L687.5 512.5L687.5 487.5" stroke="url(#SvgjsLinearGradient1530)" stroke-width="4.17"></path>
            <path d="M681.25 487.5 a6.25 6.25 0 1 0 12.5 0 a6.25 6.25 0 1 0 -12.5 0zM656.25 462.5 a6.25 6.25 0 1 0 12.5 0 a6.25 6.25 0 1 0 -12.5 0z" fill="url(#SvgjsLinearGradient1530)"></path>
            <path d="M762.5 487.5L787.5 462.5M762.5 537.5L787.5 512.5L787.5 487.5M787.5 387.5L812.5 362.5M762.5 587.5L762.5 562.5L762.5 537.5L762.5 512.5L762.5 487.5L762.5 462.5L787.5 437.5L787.5 412.5L787.5 387.5L787.5 362.5L787.5 337.5" stroke="url(#SvgjsLinearGradient1530)" stroke-width="4.17"></path>
            <path d="M781.25 337.5 a6.25 6.25 0 1 0 12.5 0 a6.25 6.25 0 1 0 -12.5 0zM781.25 462.5 a6.25 6.25 0 1 0 12.5 0 a6.25 6.25 0 1 0 -12.5 0zM781.25 487.5 a6.25 6.25 0 1 0 12.5 0 a6.25 6.25 0 1 0 -12.5 0zM806.25 362.5 a6.25 6.25 0 1 0 12.5 0 a6.25 6.25 0 1 0 -12.5 0z" fill="url(#SvgjsLinearGradient1530)"></path>
            <path d="M612.5 462.5L637.5 437.5L637.5 412.5M637.5 487.5L637.5 462.5M612.5 387.5L587.5 362.5L587.5 337.5M662.5 587.5L662.5 562.5L662.5 537.5L637.5 512.5L637.5 487.5L612.5 462.5L612.5 437.5L612.5 412.5L612.5 387.5L612.5 362.5" stroke="url(#SvgjsLinearGradient1530)" stroke-width="4.17"></path>
            <path d="M606.25 362.5 a6.25 6.25 0 1 0 12.5 0 a6.25 6.25 0 1 0 -12.5 0zM631.25 412.5 a6.25 6.25 0 1 0 12.5 0 a6.25 6.25 0 1 0 -12.5 0zM631.25 462.5 a6.25 6.25 0 1 0 12.5 0 a6.25 6.25 0 1 0 -12.5 0zM581.25 337.5 a6.25 6.25 0 1 0 12.5 0 a6.25 6.25 0 1 0 -12.5 0z" fill="url(#SvgjsLinearGradient1530)"></path>
            <path d="M812.5 487.5L837.5 462.5L837.5 437.5M787.5 562.5L787.5 537.5M787.5 587.5L787.5 562.5L812.5 537.5L812.5 512.5L812.5 487.5L812.5 462.5" stroke="url(#SvgjsLinearGradient1530)" stroke-width="4.17"></path>
            <path d="M806.25 462.5 a6.25 6.25 0 1 0 12.5 0 a6.25 6.25 0 1 0 -12.5 0zM831.25 437.5 a6.25 6.25 0 1 0 12.5 0 a6.25 6.25 0 1 0 -12.5 0zM781.25 537.5 a6.25 6.25 0 1 0 12.5 0 a6.25 6.25 0 1 0 -12.5 0z" fill="url(#SvgjsLinearGradient1530)"></path>
            <path d="M587.5 437.5L562.5 412.5L562.5 387.5M637.5 587.5L637.5 562.5L637.5 537.5L612.5 512.5L612.5 487.5L587.5 462.5L587.5 437.5L587.5 412.5" stroke="url(#SvgjsLinearGradient1530)" stroke-width="4.17"></path>
            <path d="M581.25 412.5 a6.25 6.25 0 1 0 12.5 0 a6.25 6.25 0 1 0 -12.5 0zM556.25 387.5 a6.25 6.25 0 1 0 12.5 0 a6.25 6.25 0 1 0 -12.5 0z" fill="url(#SvgjsLinearGradient1530)"></path>
            <path d="M862.5 437.5L887.5 412.5L887.5 387.5M812.5 587.5L812.5 562.5L837.5 537.5L837.5 512.5L862.5 487.5L862.5 462.5L862.5 437.5L862.5 412.5" stroke="url(#SvgjsLinearGradient1530)" stroke-width="4.17"></path>
            <path d="M856.25 412.5 a6.25 6.25 0 1 0 12.5 0 a6.25 6.25 0 1 0 -12.5 0zM881.25 387.5 a6.25 6.25 0 1 0 12.5 0 a6.25 6.25 0 1 0 -12.5 0z" fill="url(#SvgjsLinearGradient1530)"></path>
            <path d="M587.5 512.5L562.5 487.5L562.5 462.5L562.5 437.5M612.5 587.5L612.5 562.5L612.5 537.5L587.5 512.5L587.5 487.5" stroke="url(#SvgjsLinearGradient1530)" stroke-width="4.17"></path>
            <path d="M581.25 487.5 a6.25 6.25 0 1 0 12.5 0 a6.25 6.25 0 1 0 -12.5 0zM556.25 437.5 a6.25 6.25 0 1 0 12.5 0 a6.25 6.25 0 1 0 -12.5 0z" fill="url(#SvgjsLinearGradient1530)"></path>
            <path d="M887.5 462.5L887.5 437.5M837.5 587.5L837.5 562.5L862.5 537.5L862.5 512.5L887.5 487.5L887.5 462.5L912.5 437.5L912.5 412.5L912.5 387.5L912.5 362.5" stroke="url(#SvgjsLinearGradient1530)" stroke-width="4.17"></path>
            <path d="M906.25 362.5 a6.25 6.25 0 1 0 12.5 0 a6.25 6.25 0 1 0 -12.5 0zM881.25 437.5 a6.25 6.25 0 1 0 12.5 0 a6.25 6.25 0 1 0 -12.5 0z" fill="url(#SvgjsLinearGradient1530)"></path>
            <path d="M562.5 537.5L562.5 512.5M587.5 587.5L587.5 562.5L562.5 537.5L537.5 512.5L537.5 487.5" stroke="url(#SvgjsLinearGradient1530)" stroke-width="4.17"></path>
            <path d="M531.25 487.5 a6.25 6.25 0 1 0 12.5 0 a6.25 6.25 0 1 0 -12.5 0zM556.25 512.5 a6.25 6.25 0 1 0 12.5 0 a6.25 6.25 0 1 0 -12.5 0z" fill="url(#SvgjsLinearGradient1530)"></path>
            <path d="M862.5 587.5L887.5 562.5L887.5 537.5L887.5 512.5L912.5 487.5L912.5 462.5L937.5 437.5L937.5 412.5" stroke="url(#SvgjsLinearGradient1530)" stroke-width="4.17"></path>
            <path d="M931.25 412.5 a6.25 6.25 0 1 0 12.5 0 a6.25 6.25 0 1 0 -12.5 0z" fill="url(#SvgjsLinearGradient1530)"></path>
            <path d="M512.5 462.5L487.5 437.5L487.5 412.5L487.5 387.5M512.5 487.5L487.5 462.5M512.5 437.5L512.5 412.5M537.5 587.5L537.5 562.5L537.5 537.5L512.5 512.5L512.5 487.5L512.5 462.5L512.5 437.5L537.5 412.5" stroke="url(#SvgjsLinearGradient1530)" stroke-width="4.17"></path>
            <path d="M531.25 412.5 a6.25 6.25 0 1 0 12.5 0 a6.25 6.25 0 1 0 -12.5 0zM481.25 387.5 a6.25 6.25 0 1 0 12.5 0 a6.25 6.25 0 1 0 -12.5 0zM481.25 462.5 a6.25 6.25 0 1 0 12.5 0 a6.25 6.25 0 1 0 -12.5 0zM506.25 412.5 a6.25 6.25 0 1 0 12.5 0 a6.25 6.25 0 1 0 -12.5 0z" fill="url(#SvgjsLinearGradient1530)"></path>
            <path d="M912.5 587.5L912.5 562.5L912.5 537.5L912.5 512.5L937.5 487.5" stroke="url(#SvgjsLinearGradient1530)" stroke-width="4.17"></path>
            <path d="M931.25 487.5 a6.25 6.25 0 1 0 12.5 0 a6.25 6.25 0 1 0 -12.5 0z" fill="url(#SvgjsLinearGradient1530)"></path>
            <path d="M512.5 587.5L512.5 562.5" stroke="url(#SvgjsLinearGradient1530)" stroke-width="4.17"></path>
            <path d="M506.25 562.5 a6.25 6.25 0 1 0 12.5 0 a6.25 6.25 0 1 0 -12.5 0z" fill="url(#SvgjsLinearGradient1530)"></path>
            <path d="M937.5 587.5L937.5 562.5L937.5 537.5L937.5 512.5L962.5 487.5" stroke="url(#SvgjsLinearGradient1530)" stroke-width="4.17"></path>
            <path d="M956.25 487.5 a6.25 6.25 0 1 0 12.5 0 a6.25 6.25 0 1 0 -12.5 0z" fill="url(#SvgjsLinearGradient1530)"></path>
            <path d="M487.5 587.5L487.5 562.5L487.5 537.5" stroke="url(#SvgjsLinearGradient1530)" stroke-width="4.17"></path>
            <path d="M481.25 537.5 a6.25 6.25 0 1 0 12.5 0 a6.25 6.25 0 1 0 -12.5 0z" fill="url(#SvgjsLinearGradient1530)"></path>
            <path d="M1012.5 412.5L1037.5 387.5L1037.5 362.5M987.5 462.5L962.5 437.5L962.5 412.5M987.5 487.5L1012.5 462.5M962.5 587.5L962.5 562.5L962.5 537.5L962.5 512.5L987.5 487.5L987.5 462.5L987.5 437.5L1012.5 412.5L1012.5 387.5L1012.5 362.5" stroke="url(#SvgjsLinearGradient1530)" stroke-width="4.17"></path>
            <path d="M1006.25 362.5 a6.25 6.25 0 1 0 12.5 0 a6.25 6.25 0 1 0 -12.5 0zM1031.25 362.5 a6.25 6.25 0 1 0 12.5 0 a6.25 6.25 0 1 0 -12.5 0zM956.25 412.5 a6.25 6.25 0 1 0 12.5 0 a6.25 6.25 0 1 0 -12.5 0zM1006.25 462.5 a6.25 6.25 0 1 0 12.5 0 a6.25 6.25 0 1 0 -12.5 0z" fill="url(#SvgjsLinearGradient1530)"></path>
            <path d="M462.5 587.5L462.5 562.5L462.5 537.5" stroke="url(#SvgjsLinearGradient1530)" stroke-width="4.17"></path>
            <path d="M456.25 537.5 a6.25 6.25 0 1 0 12.5 0 a6.25 6.25 0 1 0 -12.5 0z" fill="url(#SvgjsLinearGradient1530)"></path>
            <path d="M987.5 587.5L987.5 562.5L987.5 537.5" stroke="url(#SvgjsLinearGradient1530)" stroke-width="4.17"></path>
            <path d="M981.25 537.5 a6.25 6.25 0 1 0 12.5 0 a6.25 6.25 0 1 0 -12.5 0z" fill="url(#SvgjsLinearGradient1530)"></path>
            <path d="M437.5 587.5L437.5 562.5L437.5 537.5" stroke="url(#SvgjsLinearGradient1530)" stroke-width="4.17"></path>
            <path d="M431.25 537.5 a6.25 6.25 0 1 0 12.5 0 a6.25 6.25 0 1 0 -12.5 0z" fill="url(#SvgjsLinearGradient1530)"></path>
            <path d="M1037.5 487.5L1062.5 462.5L1062.5 437.5L1037.5 412.5M1012.5 537.5L1012.5 512.5L1012.5 487.5M1012.5 587.5L1012.5 562.5L1012.5 537.5L1037.5 512.5L1037.5 487.5L1037.5 462.5" stroke="url(#SvgjsLinearGradient1530)" stroke-width="4.17"></path>
            <path d="M1031.25 462.5 a6.25 6.25 0 1 0 12.5 0 a6.25 6.25 0 1 0 -12.5 0zM1031.25 412.5 a6.25 6.25 0 1 0 12.5 0 a6.25 6.25 0 1 0 -12.5 0zM1006.25 487.5 a6.25 6.25 0 1 0 12.5 0 a6.25 6.25 0 1 0 -12.5 0z" fill="url(#SvgjsLinearGradient1530)"></path>
            <path d="M412.5 537.5L412.5 512.5L412.5 487.5M412.5 587.5L412.5 562.5L412.5 537.5L387.5 512.5" stroke="url(#SvgjsLinearGradient1530)" stroke-width="4.17"></path>
            <path d="M381.25 512.5 a6.25 6.25 0 1 0 12.5 0 a6.25 6.25 0 1 0 -12.5 0zM406.25 487.5 a6.25 6.25 0 1 0 12.5 0 a6.25 6.25 0 1 0 -12.5 0z" fill="url(#SvgjsLinearGradient1530)"></path>
            <path d="M1037.5 587.5L1037.5 562.5L1037.5 537.5" stroke="url(#SvgjsLinearGradient1530)" stroke-width="4.17"></path>
            <path d="M1031.25 537.5 a6.25 6.25 0 1 0 12.5 0 a6.25 6.25 0 1 0 -12.5 0z" fill="url(#SvgjsLinearGradient1530)"></path>
            <path d="M362.5 462.5L387.5 437.5M362.5 487.5L387.5 462.5L412.5 437.5M387.5 587.5L387.5 562.5L387.5 537.5L362.5 512.5L362.5 487.5L362.5 462.5L362.5 437.5" stroke="url(#SvgjsLinearGradient1530)" stroke-width="4.17"></path>
            <path d="M356.25 437.5 a6.25 6.25 0 1 0 12.5 0 a6.25 6.25 0 1 0 -12.5 0zM381.25 437.5 a6.25 6.25 0 1 0 12.5 0 a6.25 6.25 0 1 0 -12.5 0zM406.25 437.5 a6.25 6.25 0 1 0 12.5 0 a6.25 6.25 0 1 0 -12.5 0z" fill="url(#SvgjsLinearGradient1530)"></path>
            <path d="M1062.5 587.5L1062.5 562.5" stroke="url(#SvgjsLinearGradient1530)" stroke-width="4.17"></path>
            <path d="M1056.25 562.5 a6.25 6.25 0 1 0 12.5 0 a6.25 6.25 0 1 0 -12.5 0z" fill="url(#SvgjsLinearGradient1530)"></path>
            <path d="M362.5 587.5L362.5 562.5L362.5 537.5L337.5 512.5" stroke="url(#SvgjsLinearGradient1530)" stroke-width="4.17"></path>
            <path d="M331.25 512.5 a6.25 6.25 0 1 0 12.5 0 a6.25 6.25 0 1 0 -12.5 0z" fill="url(#SvgjsLinearGradient1530)"></path>
        </g>
    </g>
    <defs>
        <mask id="SvgjsMask1528">
            <rect width="1440" height="560" fill="#ffffff"></rect>
        </mask>
        <linearGradient x1="15.28%" y1="-39.29%" x2="84.72%" y2="139.29%" gradientUnits="userSpaceOnUse" id="SvgjsLinearGradient1529">
            <stop stop-color="#0e2a47" offset="0"></stop>
            <stop stop-color="#00459e" offset="1"></stop>
        </linearGradient>
        <linearGradient x1="0" y1="417.2" x2="1440" y2="417.2" gradientUnits="userSpaceOnUse" id="SvgjsLinearGradient1530">
            <stop stop-color="#3a7cc3" offset="0"></stop>
            <stop stop-color="#dd1133" offset="1"></stop>
        </linearGradient>
        <mask id="SvgjsMask1531">
            <rect width="1440" height="560" fill="white"></rect>
            <path d="M709.37 337.5 a3.13 3.13 0 1 0 6.26 0 a3.13 3.13 0 1 0 -6.26 0zM684.37 337.5 a3.13 3.13 0 1 0 6.26 0 a3.13 3.13 0 1 0 -6.26 0zM684.37 437.5 a3.13 3.13 0 1 0 6.26 0 a3.13 3.13 0 1 0 -6.26 0zM684.37 387.5 a3.13 3.13 0 1 0 6.26 0 a3.13 3.13 0 1 0 -6.26 0z" fill="black"></path>
            <path d="M734.37 362.5 a3.13 3.13 0 1 0 6.26 0 a3.13 3.13 0 1 0 -6.26 0zM734.37 387.5 a3.13 3.13 0 1 0 6.26 0 a3.13 3.13 0 1 0 -6.26 0zM734.37 412.5 a3.13 3.13 0 1 0 6.26 0 a3.13 3.13 0 1 0 -6.26 0z" fill="black"></path>
            <path d="M684.37 487.5 a3.13 3.13 0 1 0 6.26 0 a3.13 3.13 0 1 0 -6.26 0zM659.37 462.5 a3.13 3.13 0 1 0 6.26 0 a3.13 3.13 0 1 0 -6.26 0z" fill="black"></path>
            <path d="M784.37 337.5 a3.13 3.13 0 1 0 6.26 0 a3.13 3.13 0 1 0 -6.26 0zM784.37 462.5 a3.13 3.13 0 1 0 6.26 0 a3.13 3.13 0 1 0 -6.26 0zM784.37 487.5 a3.13 3.13 0 1 0 6.26 0 a3.13 3.13 0 1 0 -6.26 0zM809.37 362.5 a3.13 3.13 0 1 0 6.26 0 a3.13 3.13 0 1 0 -6.26 0z" fill="black"></path>
            <path d="M609.37 362.5 a3.13 3.13 0 1 0 6.26 0 a3.13 3.13 0 1 0 -6.26 0zM634.37 412.5 a3.13 3.13 0 1 0 6.26 0 a3.13 3.13 0 1 0 -6.26 0zM634.37 462.5 a3.13 3.13 0 1 0 6.26 0 a3.13 3.13 0 1 0 -6.26 0zM584.37 337.5 a3.13 3.13 0 1 0 6.26 0 a3.13 3.13 0 1 0 -6.26 0z" fill="black"></path>
            <path d="M809.37 462.5 a3.13 3.13 0 1 0 6.26 0 a3.13 3.13 0 1 0 -6.26 0zM834.37 437.5 a3.13 3.13 0 1 0 6.26 0 a3.13 3.13 0 1 0 -6.26 0zM784.37 537.5 a3.13 3.13 0 1 0 6.26 0 a3.13 3.13 0 1 0 -6.26 0z" fill="black"></path>
            <path d="M584.37 412.5 a3.13 3.13 0 1 0 6.26 0 a3.13 3.13 0 1 0 -6.26 0zM559.37 387.5 a3.13 3.13 0 1 0 6.26 0 a3.13 3.13 0 1 0 -6.26 0z" fill="black"></path>
            <path d="M859.37 412.5 a3.13 3.13 0 1 0 6.26 0 a3.13 3.13 0 1 0 -6.26 0zM884.37 387.5 a3.13 3.13 0 1 0 6.26 0 a3.13 3.13 0 1 0 -6.26 0z" fill="black"></path>
            <path d="M584.37 487.5 a3.13 3.13 0 1 0 6.26 0 a3.13 3.13 0 1 0 -6.26 0zM559.37 437.5 a3.13 3.13 0 1 0 6.26 0 a3.13 3.13 0 1 0 -6.26 0z" fill="black"></path>
            <path d="M909.37 362.5 a3.13 3.13 0 1 0 6.26 0 a3.13 3.13 0 1 0 -6.26 0zM884.37 437.5 a3.13 3.13 0 1 0 6.26 0 a3.13 3.13 0 1 0 -6.26 0z" fill="black"></path>
            <path d="M534.37 487.5 a3.13 3.13 0 1 0 6.26 0 a3.13 3.13 0 1 0 -6.26 0zM559.37 512.5 a3.13 3.13 0 1 0 6.26 0 a3.13 3.13 0 1 0 -6.26 0z" fill="black"></path>
            <path d="M934.37 412.5 a3.13 3.13 0 1 0 6.26 0 a3.13 3.13 0 1 0 -6.26 0z" fill="black"></path>
            <path d="M534.37 412.5 a3.13 3.13 0 1 0 6.26 0 a3.13 3.13 0 1 0 -6.26 0zM484.37 387.5 a3.13 3.13 0 1 0 6.26 0 a3.13 3.13 0 1 0 -6.26 0zM484.37 462.5 a3.13 3.13 0 1 0 6.26 0 a3.13 3.13 0 1 0 -6.26 0zM509.37 412.5 a3.13 3.13 0 1 0 6.26 0 a3.13 3.13 0 1 0 -6.26 0z" fill="black"></path>
            <path d="M934.37 487.5 a3.13 3.13 0 1 0 6.26 0 a3.13 3.13 0 1 0 -6.26 0z" fill="black"></path>
            <path d="M509.37 562.5 a3.13 3.13 0 1 0 6.26 0 a3.13 3.13 0 1 0 -6.26 0z" fill="black"></path>
            <path d="M959.37 487.5 a3.13 3.13 0 1 0 6.26 0 a3.13 3.13 0 1 0 -6.26 0z" fill="black"></path>
            <path d="M484.37 537.5 a3.13 3.13 0 1 0 6.26 0 a3.13 3.13 0 1 0 -6.26 0z" fill="black"></path>
            <path d="M1009.37 362.5 a3.13 3.13 0 1 0 6.26 0 a3.13 3.13 0 1 0 -6.26 0zM1034.37 362.5 a3.13 3.13 0 1 0 6.26 0 a3.13 3.13 0 1 0 -6.26 0zM959.37 412.5 a3.13 3.13 0 1 0 6.26 0 a3.13 3.13 0 1 0 -6.26 0zM1009.37 462.5 a3.13 3.13 0 1 0 6.26 0 a3.13 3.13 0 1 0 -6.26 0z" fill="black"></path>
            <path d="M459.37 537.5 a3.13 3.13 0 1 0 6.26 0 a3.13 3.13 0 1 0 -6.26 0z" fill="black"></path>
            <path d="M984.37 537.5 a3.13 3.13 0 1 0 6.26 0 a3.13 3.13 0 1 0 -6.26 0z" fill="black"></path>
            <path d="M434.37 537.5 a3.13 3.13 0 1 0 6.26 0 a3.13 3.13 0 1 0 -6.26 0z" fill="black"></path>
            <path d="M1034.37 462.5 a3.13 3.13 0 1 0 6.26 0 a3.13 3.13 0 1 0 -6.26 0zM1034.37 412.5 a3.13 3.13 0 1 0 6.26 0 a3.13 3.13 0 1 0 -6.26 0zM1009.37 487.5 a3.13 3.13 0 1 0 6.26 0 a3.13 3.13 0 1 0 -6.26 0z" fill="black"></path>
            <path d="M384.37 512.5 a3.13 3.13 0 1 0 6.26 0 a3.13 3.13 0 1 0 -6.26 0zM409.37 487.5 a3.13 3.13 0 1 0 6.26 0 a3.13 3.13 0 1 0 -6.26 0z" fill="black"></path>
            <path d="M1034.37 537.5 a3.13 3.13 0 1 0 6.26 0 a3.13 3.13 0 1 0 -6.26 0z" fill="black"></path>
            <path d="M359.37 437.5 a3.13 3.13 0 1 0 6.26 0 a3.13 3.13 0 1 0 -6.26 0zM384.37 437.5 a3.13 3.13 0 1 0 6.26 0 a3.13 3.13 0 1 0 -6.26 0zM409.37 437.5 a3.13 3.13 0 1 0 6.26 0 a3.13 3.13 0 1 0 -6.26 0z" fill="black"></path>
            <path d="M1059.37 562.5 a3.13 3.13 0 1 0 6.26 0 a3.13 3.13 0 1 0 -6.26 0z" fill="black"></path>
            <path d="M334.37 512.5 a3.13 3.13 0 1 0 6.26 0 a3.13 3.13 0 1 0 -6.26 0z" fill="black"></path>
        </mask>
    </defs>
</svg>